<mxfile host="app.diagrams.net" agent="Mozilla/5.0 (Windows NT 10.0; Win64; x64) AppleWebKit/537.36 (KHTML, like Gecko) Chrome/126.0.0.0 Safari/537.36" version="24.7.5">
  <diagram name="第 1 页" id="N-wDLu_x5-r6I8dXyy1u">
    <mxGraphModel dx="2840" dy="941" grid="0" gridSize="10" guides="1" tooltips="1" connect="1" arrows="1" fold="1" page="0" pageScale="1" pageWidth="827" pageHeight="1169" math="0" shadow="0">
      <root>
        <mxCell id="0" />
        <mxCell id="1" parent="0" />
        <mxCell id="CbvtvLUTBNrBXuvtt3i8-1" value="" style="rounded=0;whiteSpace=wrap;html=1;direction=east;rotation=90;container=0;fillColor=#d5e8d4;strokeColor=#82b366;" vertex="1" parent="1">
          <mxGeometry x="349" y="435" width="36" height="194" as="geometry" />
        </mxCell>
        <mxCell id="CbvtvLUTBNrBXuvtt3i8-3" value="" style="rounded=0;whiteSpace=wrap;html=1;direction=east;rotation=90;container=0;fillColor=#d5e8d4;strokeColor=#82b366;" vertex="1" parent="1">
          <mxGeometry x="349" y="563" width="36" height="132" as="geometry" />
        </mxCell>
        <mxCell id="CbvtvLUTBNrBXuvtt3i8-4" value="" style="rounded=0;whiteSpace=wrap;html=1;direction=east;rotation=90;container=0;fillColor=#d5e8d4;strokeColor=#82b366;" vertex="1" parent="1">
          <mxGeometry x="349" y="689" width="36" height="77" as="geometry" />
        </mxCell>
        <mxCell id="CbvtvLUTBNrBXuvtt3i8-5" value="" style="rounded=0;whiteSpace=wrap;html=1;direction=east;rotation=90;container=0;fillColor=#d5e8d4;strokeColor=#82b366;" vertex="1" parent="1">
          <mxGeometry x="351" y="806" width="32" height="39" as="geometry" />
        </mxCell>
        <mxCell id="CbvtvLUTBNrBXuvtt3i8-6" value="" style="endArrow=classic;html=1;rounded=0;exitX=1;exitY=0.5;exitDx=0;exitDy=0;entryX=0;entryY=0.5;entryDx=0;entryDy=0;fillColor=#d5e8d4;strokeColor=#82b366;" edge="1" parent="1" source="CbvtvLUTBNrBXuvtt3i8-1" target="CbvtvLUTBNrBXuvtt3i8-3">
          <mxGeometry width="50" height="50" relative="1" as="geometry">
            <mxPoint x="142" y="646" as="sourcePoint" />
            <mxPoint x="192" y="696" as="targetPoint" />
          </mxGeometry>
        </mxCell>
        <mxCell id="CbvtvLUTBNrBXuvtt3i8-7" value="" style="endArrow=classic;html=1;rounded=0;exitX=1;exitY=0.5;exitDx=0;exitDy=0;entryX=0;entryY=0.5;entryDx=0;entryDy=0;fillColor=#d5e8d4;strokeColor=#82b366;" edge="1" parent="1">
          <mxGeometry width="50" height="50" relative="1" as="geometry">
            <mxPoint x="367" y="649" as="sourcePoint" />
            <mxPoint x="367" y="710" as="targetPoint" />
          </mxGeometry>
        </mxCell>
        <mxCell id="CbvtvLUTBNrBXuvtt3i8-8" value="" style="endArrow=classic;html=1;rounded=0;exitX=1;exitY=0.5;exitDx=0;exitDy=0;entryX=0;entryY=0.5;entryDx=0;entryDy=0;fillColor=#d5e8d4;strokeColor=#82b366;" edge="1" parent="1">
          <mxGeometry width="50" height="50" relative="1" as="geometry">
            <mxPoint x="367" y="746" as="sourcePoint" />
            <mxPoint x="367" y="807" as="targetPoint" />
          </mxGeometry>
        </mxCell>
        <mxCell id="CbvtvLUTBNrBXuvtt3i8-9" value="" style="rounded=0;whiteSpace=wrap;html=1;direction=east;rotation=90;container=0;fillColor=#dae8fc;strokeColor=#6c8ebf;fontColor=#dae8fc;" vertex="1" parent="1">
          <mxGeometry x="-23" y="435" width="36" height="194" as="geometry" />
        </mxCell>
        <mxCell id="CbvtvLUTBNrBXuvtt3i8-10" value="" style="rounded=0;whiteSpace=wrap;html=1;direction=east;rotation=90;container=0;fillColor=#dae8fc;strokeColor=#6c8ebf;" vertex="1" parent="1">
          <mxGeometry x="-23" y="563" width="36" height="132" as="geometry" />
        </mxCell>
        <mxCell id="CbvtvLUTBNrBXuvtt3i8-11" value="" style="rounded=0;whiteSpace=wrap;html=1;direction=east;rotation=90;container=0;fillColor=#dae8fc;strokeColor=#6c8ebf;" vertex="1" parent="1">
          <mxGeometry x="-23" y="689" width="36" height="77" as="geometry" />
        </mxCell>
        <mxCell id="CbvtvLUTBNrBXuvtt3i8-12" value="" style="rounded=0;whiteSpace=wrap;html=1;direction=east;rotation=90;container=0;fillColor=#dae8fc;strokeColor=#6c8ebf;" vertex="1" parent="1">
          <mxGeometry x="-21" y="807" width="32" height="39" as="geometry" />
        </mxCell>
        <mxCell id="CbvtvLUTBNrBXuvtt3i8-13" value="" style="endArrow=classic;html=1;rounded=0;exitX=1;exitY=0.5;exitDx=0;exitDy=0;entryX=0;entryY=0.5;entryDx=0;entryDy=0;fillColor=#dae8fc;strokeColor=#6c8ebf;" edge="1" source="CbvtvLUTBNrBXuvtt3i8-9" target="CbvtvLUTBNrBXuvtt3i8-10" parent="1">
          <mxGeometry width="50" height="50" relative="1" as="geometry">
            <mxPoint x="-230" y="646" as="sourcePoint" />
            <mxPoint x="-180" y="696" as="targetPoint" />
          </mxGeometry>
        </mxCell>
        <mxCell id="CbvtvLUTBNrBXuvtt3i8-14" value="" style="endArrow=classic;html=1;rounded=0;exitX=1;exitY=0.5;exitDx=0;exitDy=0;entryX=0;entryY=0.5;entryDx=0;entryDy=0;fillColor=#dae8fc;strokeColor=#6c8ebf;" edge="1" parent="1">
          <mxGeometry width="50" height="50" relative="1" as="geometry">
            <mxPoint x="-5" y="649" as="sourcePoint" />
            <mxPoint x="-5" y="710" as="targetPoint" />
          </mxGeometry>
        </mxCell>
        <mxCell id="CbvtvLUTBNrBXuvtt3i8-15" value="" style="endArrow=classic;html=1;rounded=0;exitX=1;exitY=0.5;exitDx=0;exitDy=0;entryX=0;entryY=0.5;entryDx=0;entryDy=0;fillColor=#dae8fc;strokeColor=#6c8ebf;" edge="1" parent="1" target="CbvtvLUTBNrBXuvtt3i8-12">
          <mxGeometry width="50" height="50" relative="1" as="geometry">
            <mxPoint x="-5" y="746" as="sourcePoint" />
            <mxPoint x="-5" y="807" as="targetPoint" />
          </mxGeometry>
        </mxCell>
        <mxCell id="CbvtvLUTBNrBXuvtt3i8-16" value="" style="rounded=1;whiteSpace=wrap;html=1;direction=east;rotation=90;container=0;fillColor=#e1d5e7;strokeColor=#9673a6;" vertex="1" parent="1">
          <mxGeometry x="177.97" y="789.14" width="17.07" height="72.73" as="geometry" />
        </mxCell>
        <mxCell id="CbvtvLUTBNrBXuvtt3i8-26" value="" style="endArrow=classic;html=1;rounded=0;exitX=0.5;exitY=0;exitDx=0;exitDy=0;entryX=0.5;entryY=1;entryDx=0;entryDy=0;fillColor=#dae8fc;strokeColor=#6c8ebf;" edge="1" parent="1" source="CbvtvLUTBNrBXuvtt3i8-12" target="CbvtvLUTBNrBXuvtt3i8-16">
          <mxGeometry width="50" height="50" relative="1" as="geometry">
            <mxPoint x="-140" y="892" as="sourcePoint" />
            <mxPoint x="-90" y="842" as="targetPoint" />
          </mxGeometry>
        </mxCell>
        <mxCell id="CbvtvLUTBNrBXuvtt3i8-28" value="" style="rounded=1;whiteSpace=wrap;html=1;direction=east;rotation=90;container=0;fillColor=#f8cecc;strokeColor=#b85450;" vertex="1" parent="1">
          <mxGeometry x="177.97" y="818" width="17.07" height="72.73" as="geometry" />
        </mxCell>
        <mxCell id="CbvtvLUTBNrBXuvtt3i8-29" value="" style="rounded=1;whiteSpace=wrap;html=1;direction=east;rotation=90;container=0;fillColor=#e1d5e7;strokeColor=#9673a6;" vertex="1" parent="1">
          <mxGeometry x="177.97" y="690" width="17.07" height="72.73" as="geometry" />
        </mxCell>
        <mxCell id="CbvtvLUTBNrBXuvtt3i8-30" value="" style="rounded=1;whiteSpace=wrap;html=1;direction=east;rotation=90;container=0;fillColor=#f8cecc;strokeColor=#b85450;" vertex="1" parent="1">
          <mxGeometry x="177.97" y="720.86" width="17.07" height="72.73" as="geometry" />
        </mxCell>
        <mxCell id="CbvtvLUTBNrBXuvtt3i8-31" value="" style="rounded=1;whiteSpace=wrap;html=1;direction=east;rotation=90;container=0;fillColor=#e1d5e7;strokeColor=#9673a6;" vertex="1" parent="1">
          <mxGeometry x="177.97" y="593.41" width="17.07" height="72.73" as="geometry" />
        </mxCell>
        <mxCell id="CbvtvLUTBNrBXuvtt3i8-32" value="" style="rounded=1;whiteSpace=wrap;html=1;direction=east;rotation=90;container=0;fillColor=#f8cecc;strokeColor=#b85450;" vertex="1" parent="1">
          <mxGeometry x="177.97" y="623.27" width="17.07" height="72.73" as="geometry" />
        </mxCell>
        <mxCell id="CbvtvLUTBNrBXuvtt3i8-33" value="" style="rounded=1;whiteSpace=wrap;html=1;direction=east;rotation=90;container=0;fillColor=#f8cecc;strokeColor=#b85450;" vertex="1" parent="1">
          <mxGeometry x="177.97" y="525.6800000000001" width="17.07" height="72.73" as="geometry" />
        </mxCell>
        <mxCell id="CbvtvLUTBNrBXuvtt3i8-34" value="" style="rounded=1;whiteSpace=wrap;html=1;direction=east;rotation=90;container=0;fillColor=#e1d5e7;strokeColor=#9673a6;" vertex="1" parent="1">
          <mxGeometry x="177.97" y="495.64000000000004" width="17.07" height="72.73" as="geometry" />
        </mxCell>
        <mxCell id="CbvtvLUTBNrBXuvtt3i8-38" value="" style="endArrow=classic;html=1;rounded=0;exitX=0.5;exitY=0;exitDx=0;exitDy=0;entryX=0.5;entryY=1;entryDx=0;entryDy=0;fillColor=#dae8fc;strokeColor=#6c8ebf;" edge="1" parent="1" source="CbvtvLUTBNrBXuvtt3i8-11" target="CbvtvLUTBNrBXuvtt3i8-29">
          <mxGeometry width="50" height="50" relative="1" as="geometry">
            <mxPoint x="63" y="793" as="sourcePoint" />
            <mxPoint x="113" y="743" as="targetPoint" />
          </mxGeometry>
        </mxCell>
        <mxCell id="CbvtvLUTBNrBXuvtt3i8-39" value="" style="endArrow=classic;html=1;rounded=0;exitX=0.5;exitY=1;exitDx=0;exitDy=0;entryX=0.5;entryY=0;entryDx=0;entryDy=0;fillColor=#d5e8d4;strokeColor=#82b366;" edge="1" parent="1" source="CbvtvLUTBNrBXuvtt3i8-4" target="CbvtvLUTBNrBXuvtt3i8-29">
          <mxGeometry width="50" height="50" relative="1" as="geometry">
            <mxPoint x="643" y="771" as="sourcePoint" />
            <mxPoint x="693" y="721" as="targetPoint" />
          </mxGeometry>
        </mxCell>
        <mxCell id="CbvtvLUTBNrBXuvtt3i8-40" value="" style="endArrow=classic;html=1;rounded=0;exitX=0.5;exitY=0;exitDx=0;exitDy=0;entryX=0.5;entryY=1;entryDx=0;entryDy=0;fillColor=#dae8fc;strokeColor=#6c8ebf;" edge="1" parent="1" source="CbvtvLUTBNrBXuvtt3i8-10" target="CbvtvLUTBNrBXuvtt3i8-31">
          <mxGeometry width="50" height="50" relative="1" as="geometry">
            <mxPoint x="-227" y="636" as="sourcePoint" />
            <mxPoint x="-177" y="586" as="targetPoint" />
          </mxGeometry>
        </mxCell>
        <mxCell id="CbvtvLUTBNrBXuvtt3i8-41" value="" style="endArrow=classic;html=1;rounded=0;exitX=0.5;exitY=1;exitDx=0;exitDy=0;entryX=0.5;entryY=0;entryDx=0;entryDy=0;fillColor=#d5e8d4;strokeColor=#82b366;" edge="1" parent="1" source="CbvtvLUTBNrBXuvtt3i8-3" target="CbvtvLUTBNrBXuvtt3i8-31">
          <mxGeometry width="50" height="50" relative="1" as="geometry">
            <mxPoint x="600" y="555" as="sourcePoint" />
            <mxPoint x="650" y="505" as="targetPoint" />
          </mxGeometry>
        </mxCell>
        <mxCell id="CbvtvLUTBNrBXuvtt3i8-42" value="" style="endArrow=classic;html=1;rounded=0;exitX=0.5;exitY=0;exitDx=0;exitDy=0;entryX=0.5;entryY=1;entryDx=0;entryDy=0;fillColor=#dae8fc;strokeColor=#6c8ebf;" edge="1" parent="1" source="CbvtvLUTBNrBXuvtt3i8-9" target="CbvtvLUTBNrBXuvtt3i8-34">
          <mxGeometry width="50" height="50" relative="1" as="geometry">
            <mxPoint x="-46" y="473" as="sourcePoint" />
            <mxPoint x="4" y="423" as="targetPoint" />
          </mxGeometry>
        </mxCell>
        <mxCell id="CbvtvLUTBNrBXuvtt3i8-43" value="" style="endArrow=classic;html=1;rounded=0;exitX=0.5;exitY=1;exitDx=0;exitDy=0;entryX=0.5;entryY=0;entryDx=0;entryDy=0;fillColor=#d5e8d4;strokeColor=#82b366;" edge="1" parent="1" source="CbvtvLUTBNrBXuvtt3i8-1" target="CbvtvLUTBNrBXuvtt3i8-34">
          <mxGeometry width="50" height="50" relative="1" as="geometry">
            <mxPoint x="332" y="497" as="sourcePoint" />
            <mxPoint x="382" y="447" as="targetPoint" />
          </mxGeometry>
        </mxCell>
        <mxCell id="CbvtvLUTBNrBXuvtt3i8-45" value="" style="curved=1;endArrow=classic;html=1;rounded=0;entryX=1;entryY=0.5;entryDx=0;entryDy=0;edgeStyle=orthogonalEdgeStyle;exitX=1;exitY=0.5;exitDx=0;exitDy=0;fillColor=#dae8fc;strokeColor=#6c8ebf;" edge="1" parent="1" source="CbvtvLUTBNrBXuvtt3i8-12" target="CbvtvLUTBNrBXuvtt3i8-28">
          <mxGeometry width="50" height="50" relative="1" as="geometry">
            <mxPoint x="15" y="1051" as="sourcePoint" />
            <mxPoint x="65" y="1001" as="targetPoint" />
            <Array as="points">
              <mxPoint x="-5" y="896" />
              <mxPoint x="187" y="896" />
            </Array>
          </mxGeometry>
        </mxCell>
        <mxCell id="CbvtvLUTBNrBXuvtt3i8-47" value="" style="curved=1;endArrow=classic;html=1;rounded=0;entryX=1;entryY=0.5;entryDx=0;entryDy=0;exitX=1;exitY=0.5;exitDx=0;exitDy=0;edgeStyle=orthogonalEdgeStyle;fillColor=#d5e8d4;strokeColor=#82b366;" edge="1" parent="1" source="CbvtvLUTBNrBXuvtt3i8-5" target="CbvtvLUTBNrBXuvtt3i8-28">
          <mxGeometry width="50" height="50" relative="1" as="geometry">
            <mxPoint x="433" y="1043" as="sourcePoint" />
            <mxPoint x="483" y="993" as="targetPoint" />
            <Array as="points">
              <mxPoint x="367" y="895" />
              <mxPoint x="187" y="895" />
            </Array>
          </mxGeometry>
        </mxCell>
        <mxCell id="CbvtvLUTBNrBXuvtt3i8-50" value="" style="endArrow=classic;html=1;rounded=0;exitX=0;exitY=0.5;exitDx=0;exitDy=0;entryX=1;entryY=0.5;entryDx=0;entryDy=0;fillColor=#f8cecc;strokeColor=#b85450;" edge="1" parent="1" source="CbvtvLUTBNrBXuvtt3i8-28" target="CbvtvLUTBNrBXuvtt3i8-16">
          <mxGeometry width="50" height="50" relative="1" as="geometry">
            <mxPoint x="534" y="900" as="sourcePoint" />
            <mxPoint x="584" y="850" as="targetPoint" />
          </mxGeometry>
        </mxCell>
        <mxCell id="CbvtvLUTBNrBXuvtt3i8-52" value="" style="endArrow=classic;html=1;rounded=0;exitX=0;exitY=0.5;exitDx=0;exitDy=0;entryX=1;entryY=0.5;entryDx=0;entryDy=0;fillColor=#f8cecc;strokeColor=#b85450;" edge="1" parent="1" source="CbvtvLUTBNrBXuvtt3i8-30" target="CbvtvLUTBNrBXuvtt3i8-29">
          <mxGeometry width="50" height="50" relative="1" as="geometry">
            <mxPoint x="658" y="782" as="sourcePoint" />
            <mxPoint x="708" y="732" as="targetPoint" />
          </mxGeometry>
        </mxCell>
        <mxCell id="CbvtvLUTBNrBXuvtt3i8-55" value="" style="curved=1;endArrow=classic;html=1;rounded=0;entryX=1;entryY=0.5;entryDx=0;entryDy=0;edgeStyle=orthogonalEdgeStyle;exitX=1;exitY=0.5;exitDx=0;exitDy=0;fillColor=#dae8fc;strokeColor=#6c8ebf;" edge="1" parent="1">
          <mxGeometry width="50" height="50" relative="1" as="geometry">
            <mxPoint x="-4" y="649" as="sourcePoint" />
            <mxPoint x="188" y="669" as="targetPoint" />
            <Array as="points">
              <mxPoint x="-4" y="702" />
              <mxPoint x="188" y="702" />
            </Array>
          </mxGeometry>
        </mxCell>
        <mxCell id="CbvtvLUTBNrBXuvtt3i8-56" value="" style="curved=1;endArrow=classic;html=1;rounded=0;entryX=1;entryY=0.5;entryDx=0;entryDy=0;exitX=1;exitY=0.5;exitDx=0;exitDy=0;edgeStyle=orthogonalEdgeStyle;fillColor=#d5e8d4;strokeColor=#82b366;" edge="1" parent="1">
          <mxGeometry width="50" height="50" relative="1" as="geometry">
            <mxPoint x="368" y="648" as="sourcePoint" />
            <mxPoint x="188" y="669" as="targetPoint" />
            <Array as="points">
              <mxPoint x="368" y="701" />
              <mxPoint x="188" y="701" />
            </Array>
          </mxGeometry>
        </mxCell>
        <mxCell id="CbvtvLUTBNrBXuvtt3i8-60" value="" style="endArrow=classic;html=1;rounded=0;exitX=0;exitY=0.5;exitDx=0;exitDy=0;fillColor=#f8cecc;strokeColor=#b85450;" edge="1" parent="1" source="CbvtvLUTBNrBXuvtt3i8-34">
          <mxGeometry width="50" height="50" relative="1" as="geometry">
            <mxPoint x="181" y="476" as="sourcePoint" />
            <mxPoint x="187" y="446" as="targetPoint" />
          </mxGeometry>
        </mxCell>
        <mxCell id="CbvtvLUTBNrBXuvtt3i8-65" value="" style="endArrow=classic;html=1;rounded=0;exitX=0;exitY=0.5;exitDx=0;exitDy=0;entryX=1;entryY=0.5;entryDx=0;entryDy=0;fillColor=#f8cecc;strokeColor=#b85450;" edge="1" parent="1" source="CbvtvLUTBNrBXuvtt3i8-32" target="CbvtvLUTBNrBXuvtt3i8-31">
          <mxGeometry width="50" height="50" relative="1" as="geometry">
            <mxPoint x="-221" y="484" as="sourcePoint" />
            <mxPoint x="-171" y="434" as="targetPoint" />
          </mxGeometry>
        </mxCell>
        <mxCell id="CbvtvLUTBNrBXuvtt3i8-66" value="" style="endArrow=classic;html=1;rounded=0;exitX=0;exitY=0.5;exitDx=0;exitDy=0;entryX=1;entryY=0.5;entryDx=0;entryDy=0;fillColor=#f8cecc;strokeColor=#b85450;" edge="1" parent="1" source="CbvtvLUTBNrBXuvtt3i8-33" target="CbvtvLUTBNrBXuvtt3i8-34">
          <mxGeometry width="50" height="50" relative="1" as="geometry">
            <mxPoint x="25" y="344" as="sourcePoint" />
            <mxPoint x="75" y="294" as="targetPoint" />
          </mxGeometry>
        </mxCell>
        <mxCell id="CbvtvLUTBNrBXuvtt3i8-67" value="" style="curved=1;endArrow=classic;html=1;rounded=0;entryX=1;entryY=0.5;entryDx=0;entryDy=0;edgeStyle=orthogonalEdgeStyle;exitX=1;exitY=0.5;exitDx=0;exitDy=0;fillColor=#dae8fc;strokeColor=#6c8ebf;" edge="1" parent="1">
          <mxGeometry width="50" height="50" relative="1" as="geometry">
            <mxPoint x="-5" y="550" as="sourcePoint" />
            <mxPoint x="187" y="570" as="targetPoint" />
            <Array as="points">
              <mxPoint x="-5" y="603" />
              <mxPoint x="187" y="603" />
            </Array>
          </mxGeometry>
        </mxCell>
        <mxCell id="CbvtvLUTBNrBXuvtt3i8-68" value="" style="curved=1;endArrow=classic;html=1;rounded=0;entryX=1;entryY=0.5;entryDx=0;entryDy=0;exitX=1;exitY=0.5;exitDx=0;exitDy=0;edgeStyle=orthogonalEdgeStyle;fillColor=#d5e8d4;strokeColor=#82b366;" edge="1" parent="1">
          <mxGeometry width="50" height="50" relative="1" as="geometry">
            <mxPoint x="367" y="549" as="sourcePoint" />
            <mxPoint x="187" y="570" as="targetPoint" />
            <Array as="points">
              <mxPoint x="367" y="602" />
              <mxPoint x="187" y="602" />
            </Array>
          </mxGeometry>
        </mxCell>
        <mxCell id="CbvtvLUTBNrBXuvtt3i8-71" value="" style="curved=1;endArrow=classic;html=1;rounded=0;entryX=1;entryY=0.5;entryDx=0;entryDy=0;edgeStyle=orthogonalEdgeStyle;exitX=1;exitY=0.5;exitDx=0;exitDy=0;fillColor=#dae8fc;strokeColor=#6c8ebf;" edge="1" parent="1">
          <mxGeometry width="50" height="50" relative="1" as="geometry">
            <mxPoint x="-4" y="746" as="sourcePoint" />
            <mxPoint x="188" y="766" as="targetPoint" />
            <Array as="points">
              <mxPoint x="-4" y="799" />
              <mxPoint x="188" y="799" />
            </Array>
          </mxGeometry>
        </mxCell>
        <mxCell id="CbvtvLUTBNrBXuvtt3i8-72" value="" style="curved=1;endArrow=classic;html=1;rounded=0;entryX=1;entryY=0.5;entryDx=0;entryDy=0;exitX=1;exitY=0.5;exitDx=0;exitDy=0;edgeStyle=orthogonalEdgeStyle;fillColor=#d5e8d4;strokeColor=#82b366;" edge="1" parent="1">
          <mxGeometry width="50" height="50" relative="1" as="geometry">
            <mxPoint x="368" y="745" as="sourcePoint" />
            <mxPoint x="188" y="766" as="targetPoint" />
            <Array as="points">
              <mxPoint x="368" y="798" />
              <mxPoint x="188" y="798" />
            </Array>
          </mxGeometry>
        </mxCell>
        <mxCell id="CbvtvLUTBNrBXuvtt3i8-73" value="" style="rounded=0;whiteSpace=wrap;html=1;direction=east;rotation=90;container=0;fillColor=#B2D9B5;strokeColor=#82b366;" vertex="1" parent="1">
          <mxGeometry x="349" y="331.68" width="36" height="194" as="geometry" />
        </mxCell>
        <mxCell id="CbvtvLUTBNrBXuvtt3i8-75" value="" style="endArrow=classic;html=1;rounded=0;edgeStyle=orthogonalEdgeStyle;curved=1;entryX=1;entryY=0.5;entryDx=0;entryDy=0;strokeColor=#b2d9b5;" edge="1" parent="1" target="CbvtvLUTBNrBXuvtt3i8-73">
          <mxGeometry width="50" height="50" relative="1" as="geometry">
            <mxPoint x="186" y="523" as="sourcePoint" />
            <mxPoint x="236" y="473" as="targetPoint" />
            <Array as="points">
              <mxPoint x="186" y="498" />
              <mxPoint x="367" y="498" />
            </Array>
          </mxGeometry>
        </mxCell>
        <mxCell id="CbvtvLUTBNrBXuvtt3i8-77" value="" style="rounded=0;whiteSpace=wrap;html=1;direction=east;rotation=90;container=0;fillColor=#C0D0FC;strokeColor=#6c8ebf;" vertex="1" parent="1">
          <mxGeometry x="-23" y="331.68" width="36" height="194" as="geometry" />
        </mxCell>
        <mxCell id="CbvtvLUTBNrBXuvtt3i8-79" value="" style="endArrow=classic;html=1;rounded=0;edgeStyle=orthogonalEdgeStyle;curved=1;entryX=1;entryY=0.5;entryDx=0;entryDy=0;strokeColor=#c0d0fc;" edge="1" parent="1">
          <mxGeometry width="50" height="50" relative="1" as="geometry">
            <mxPoint x="186" y="523" as="sourcePoint" />
            <mxPoint x="5" y="447" as="targetPoint" />
            <Array as="points">
              <mxPoint x="186" y="498" />
              <mxPoint x="5" y="498" />
            </Array>
          </mxGeometry>
        </mxCell>
        <mxCell id="CbvtvLUTBNrBXuvtt3i8-80" value="" style="rounded=1;whiteSpace=wrap;html=1;direction=east;rotation=90;container=0;fillColor=#f57f7f;strokeColor=#b85450;" vertex="1" parent="1">
          <mxGeometry x="171.48" y="389" width="30.04" height="72.73" as="geometry" />
        </mxCell>
        <mxCell id="CbvtvLUTBNrBXuvtt3i8-81" value="&lt;font style=&quot;font-size: 25px;&quot;&gt;vi&lt;/font&gt;" style="text;html=1;align=center;verticalAlign=middle;whiteSpace=wrap;rounded=0;" vertex="1" parent="1">
          <mxGeometry x="-37" y="517" width="60" height="30" as="geometry" />
        </mxCell>
        <mxCell id="CbvtvLUTBNrBXuvtt3i8-82" value="&lt;font style=&quot;font-size: 25px;&quot;&gt;ir&lt;/font&gt;" style="text;html=1;align=center;verticalAlign=middle;whiteSpace=wrap;rounded=0;fontSize=25;" vertex="1" parent="1">
          <mxGeometry x="337" y="517.01" width="60" height="30" as="geometry" />
        </mxCell>
        <mxCell id="CbvtvLUTBNrBXuvtt3i8-83" value="&lt;font style=&quot;font-size: 25px;&quot;&gt;vi_recon&lt;/font&gt;" style="text;html=1;align=center;verticalAlign=middle;whiteSpace=wrap;rounded=0;fontSize=25;" vertex="1" parent="1">
          <mxGeometry x="-35" y="413.68" width="60" height="30" as="geometry" />
        </mxCell>
        <mxCell id="CbvtvLUTBNrBXuvtt3i8-84" value="&lt;font style=&quot;font-size: 25px;&quot;&gt;ir_recon&lt;/font&gt;" style="text;html=1;align=center;verticalAlign=middle;whiteSpace=wrap;rounded=0;fontSize=25;" vertex="1" parent="1">
          <mxGeometry x="337" y="413.37" width="60" height="30" as="geometry" />
        </mxCell>
        <mxCell id="CbvtvLUTBNrBXuvtt3i8-85" value="Loss_recon" style="text;html=1;align=center;verticalAlign=middle;whiteSpace=wrap;rounded=0;fontSize=20;" vertex="1" parent="1">
          <mxGeometry x="-272" y="461.73" width="97" height="41.27" as="geometry" />
        </mxCell>
        <mxCell id="CbvtvLUTBNrBXuvtt3i8-86" value="Loss_recon" style="text;html=1;align=center;verticalAlign=middle;whiteSpace=wrap;rounded=0;fontSize=20;" vertex="1" parent="1">
          <mxGeometry x="531" y="461.73" width="97" height="41.27" as="geometry" />
        </mxCell>
        <mxCell id="CbvtvLUTBNrBXuvtt3i8-87" value="" style="endArrow=classic;html=1;rounded=0;exitX=0.5;exitY=1;exitDx=0;exitDy=0;fillColor=#d5e8d4;strokeColor=#82b366;" edge="1" parent="1" source="CbvtvLUTBNrBXuvtt3i8-5">
          <mxGeometry width="50" height="50" relative="1" as="geometry">
            <mxPoint x="326" y="827.5" as="sourcePoint" />
            <mxPoint x="224" y="826" as="targetPoint" />
          </mxGeometry>
        </mxCell>
        <mxCell id="CbvtvLUTBNrBXuvtt3i8-88" value="" style="endArrow=classic;html=1;rounded=0;edgeStyle=orthogonalEdgeStyle;exitX=0.5;exitY=1;exitDx=0;exitDy=0;" edge="1" parent="1" source="CbvtvLUTBNrBXuvtt3i8-77" target="CbvtvLUTBNrBXuvtt3i8-85">
          <mxGeometry width="50" height="50" relative="1" as="geometry">
            <mxPoint x="-314" y="399" as="sourcePoint" />
            <mxPoint x="-190" y="419" as="targetPoint" />
          </mxGeometry>
        </mxCell>
        <mxCell id="CbvtvLUTBNrBXuvtt3i8-89" value="" style="endArrow=classic;html=1;rounded=0;edgeStyle=orthogonalEdgeStyle;exitX=0.5;exitY=1;exitDx=0;exitDy=0;" edge="1" parent="1">
          <mxGeometry width="50" height="50" relative="1" as="geometry">
            <mxPoint x="-105" y="531.9999999999998" as="sourcePoint" />
            <mxPoint x="-226" y="498.9999999999998" as="targetPoint" />
          </mxGeometry>
        </mxCell>
        <mxCell id="CbvtvLUTBNrBXuvtt3i8-90" value="" style="endArrow=classic;html=1;rounded=0;edgeStyle=orthogonalEdgeStyle;exitX=0.5;exitY=1;exitDx=0;exitDy=0;" edge="1" parent="1">
          <mxGeometry width="50" height="50" relative="1" as="geometry">
            <mxPoint x="463" y="428.32" as="sourcePoint" />
            <mxPoint x="584" y="461.32" as="targetPoint" />
            <Array as="points">
              <mxPoint x="585" y="428" />
            </Array>
          </mxGeometry>
        </mxCell>
        <mxCell id="CbvtvLUTBNrBXuvtt3i8-91" value="" style="endArrow=classic;html=1;rounded=0;edgeStyle=orthogonalEdgeStyle;exitX=0.5;exitY=1;exitDx=0;exitDy=0;" edge="1" parent="1">
          <mxGeometry width="50" height="50" relative="1" as="geometry">
            <mxPoint x="464" y="531.3199999999998" as="sourcePoint" />
            <mxPoint x="585" y="498.31999999999977" as="targetPoint" />
            <Array as="points">
              <mxPoint x="586" y="531" />
            </Array>
          </mxGeometry>
        </mxCell>
        <mxCell id="CbvtvLUTBNrBXuvtt3i8-93" value="" style="rounded=0;whiteSpace=wrap;html=1;direction=east;rotation=90;container=0;fillColor=#dae8fc;strokeColor=#6c8ebf;fontColor=#dae8fc;" vertex="1" parent="1">
          <mxGeometry x="763.01" y="593.28" width="36" height="76" as="geometry" />
        </mxCell>
        <mxCell id="CbvtvLUTBNrBXuvtt3i8-94" value="" style="rounded=0;whiteSpace=wrap;html=1;direction=east;rotation=90;container=0;fillColor=#d5e8d4;strokeColor=#82b366;" vertex="1" parent="1">
          <mxGeometry x="763.01" y="545.28" width="36" height="76.01" as="geometry" />
        </mxCell>
        <mxCell id="CbvtvLUTBNrBXuvtt3i8-95" value="" style="rounded=1;whiteSpace=wrap;html=1;direction=east;rotation=90;container=0;fillColor=#f57f7f;strokeColor=#b85450;" vertex="1" parent="1">
          <mxGeometry x="762" y="638.27" width="38.02" height="77" as="geometry" />
        </mxCell>
        <mxCell id="CbvtvLUTBNrBXuvtt3i8-99" value="" style="endArrow=classic;html=1;rounded=0;exitX=0.5;exitY=0;exitDx=0;exitDy=0;entryX=0.75;entryY=1;entryDx=0;entryDy=0;" edge="1" parent="1" source="CbvtvLUTBNrBXuvtt3i8-95" target="CbvtvLUTBNrBXuvtt3i8-100">
          <mxGeometry width="50" height="50" relative="1" as="geometry">
            <mxPoint x="888" y="648" as="sourcePoint" />
            <mxPoint x="970" y="658.6399999999999" as="targetPoint" />
          </mxGeometry>
        </mxCell>
        <mxCell id="CbvtvLUTBNrBXuvtt3i8-100" value="" style="shape=trapezoid;perimeter=trapezoidPerimeter;whiteSpace=wrap;html=1;fixedSize=1;rotation=90;" vertex="1" parent="1">
          <mxGeometry x="959.63" y="614.88" width="103.25" height="74.5" as="geometry" />
        </mxCell>
        <mxCell id="CbvtvLUTBNrBXuvtt3i8-101" value="Sematic&lt;br&gt;Discriminator" style="text;html=1;align=center;verticalAlign=middle;whiteSpace=wrap;rounded=0;" vertex="1" parent="1">
          <mxGeometry x="985.26" y="638.38" width="52" height="27.5" as="geometry" />
        </mxCell>
        <mxCell id="CbvtvLUTBNrBXuvtt3i8-103" value="Sematic&lt;br&gt;Extractor" style="rounded=1;whiteSpace=wrap;html=1;" vertex="1" parent="1">
          <mxGeometry x="895" y="614.88" width="58" height="35" as="geometry" />
        </mxCell>
        <mxCell id="CbvtvLUTBNrBXuvtt3i8-104" value="" style="endArrow=classic;html=1;rounded=0;exitX=0.5;exitY=0;exitDx=0;exitDy=0;entryX=0;entryY=0.5;entryDx=0;entryDy=0;" edge="1" parent="1" source="CbvtvLUTBNrBXuvtt3i8-93" target="CbvtvLUTBNrBXuvtt3i8-103">
          <mxGeometry width="50" height="50" relative="1" as="geometry">
            <mxPoint x="1068" y="468" as="sourcePoint" />
            <mxPoint x="1118" y="418" as="targetPoint" />
          </mxGeometry>
        </mxCell>
        <mxCell id="CbvtvLUTBNrBXuvtt3i8-105" value="" style="endArrow=classic;html=1;rounded=0;edgeStyle=orthogonalEdgeStyle;exitX=0.5;exitY=0;exitDx=0;exitDy=0;entryX=0;entryY=0.5;entryDx=0;entryDy=0;" edge="1" parent="1" source="CbvtvLUTBNrBXuvtt3i8-94" target="CbvtvLUTBNrBXuvtt3i8-103">
          <mxGeometry width="50" height="50" relative="1" as="geometry">
            <mxPoint x="272" y="378" as="sourcePoint" />
            <mxPoint x="851" y="632" as="targetPoint" />
          </mxGeometry>
        </mxCell>
        <mxCell id="CbvtvLUTBNrBXuvtt3i8-106" value="" style="endArrow=classic;html=1;rounded=0;exitX=1;exitY=0.5;exitDx=0;exitDy=0;entryX=0.315;entryY=0.987;entryDx=0;entryDy=0;entryPerimeter=0;" edge="1" parent="1" source="CbvtvLUTBNrBXuvtt3i8-103" target="CbvtvLUTBNrBXuvtt3i8-100">
          <mxGeometry width="50" height="50" relative="1" as="geometry">
            <mxPoint x="840" y="477" as="sourcePoint" />
            <mxPoint x="890" y="427" as="targetPoint" />
          </mxGeometry>
        </mxCell>
        <mxCell id="CbvtvLUTBNrBXuvtt3i8-107" value="" style="endArrow=classic;html=1;rounded=0;exitX=0.5;exitY=0;exitDx=0;exitDy=0;" edge="1" parent="1" source="CbvtvLUTBNrBXuvtt3i8-100">
          <mxGeometry width="50" height="50" relative="1" as="geometry">
            <mxPoint x="1164" y="640" as="sourcePoint" />
            <mxPoint x="1106" y="652" as="targetPoint" />
          </mxGeometry>
        </mxCell>
        <mxCell id="CbvtvLUTBNrBXuvtt3i8-108" value="Real&lt;div&gt;Fake&lt;/div&gt;" style="text;html=1;align=center;verticalAlign=middle;whiteSpace=wrap;rounded=0;" vertex="1" parent="1">
          <mxGeometry x="1085" y="629" width="87" height="47" as="geometry" />
        </mxCell>
        <mxCell id="CbvtvLUTBNrBXuvtt3i8-132" style="edgeStyle=orthogonalEdgeStyle;rounded=0;orthogonalLoop=1;jettySize=auto;html=1;entryX=0.5;entryY=0;entryDx=0;entryDy=0;" edge="1" parent="1" source="CbvtvLUTBNrBXuvtt3i8-109" target="CbvtvLUTBNrBXuvtt3i8-127">
          <mxGeometry relative="1" as="geometry">
            <Array as="points">
              <mxPoint x="-153" y="1078" />
              <mxPoint x="863" y="1078" />
            </Array>
          </mxGeometry>
        </mxCell>
        <mxCell id="CbvtvLUTBNrBXuvtt3i8-109" value="vi" style="rounded=0;whiteSpace=wrap;html=1;fontSize=22;" vertex="1" parent="1">
          <mxGeometry x="-213" y="1229" width="120" height="60" as="geometry" />
        </mxCell>
        <mxCell id="CbvtvLUTBNrBXuvtt3i8-135" style="edgeStyle=orthogonalEdgeStyle;rounded=0;orthogonalLoop=1;jettySize=auto;html=1;" edge="1" parent="1">
          <mxGeometry relative="1" as="geometry">
            <mxPoint x="865.8823529411766" y="1399.7058823529414" as="targetPoint" />
            <mxPoint x="-152.9411764705883" y="1391" as="sourcePoint" />
            <Array as="points">
              <mxPoint x="-153" y="1526" />
              <mxPoint x="866" y="1526" />
            </Array>
          </mxGeometry>
        </mxCell>
        <mxCell id="CbvtvLUTBNrBXuvtt3i8-110" value="ir" style="rounded=0;whiteSpace=wrap;html=1;fontSize=22;" vertex="1" parent="1">
          <mxGeometry x="-213" y="1335" width="120" height="60" as="geometry" />
        </mxCell>
        <mxCell id="CbvtvLUTBNrBXuvtt3i8-118" style="edgeStyle=orthogonalEdgeStyle;rounded=0;orthogonalLoop=1;jettySize=auto;html=1;entryX=0;entryY=0.5;entryDx=0;entryDy=0;" edge="1" parent="1" source="CbvtvLUTBNrBXuvtt3i8-111" target="CbvtvLUTBNrBXuvtt3i8-117">
          <mxGeometry relative="1" as="geometry">
            <Array as="points">
              <mxPoint x="153" y="1201" />
              <mxPoint x="153" y="1290" />
            </Array>
          </mxGeometry>
        </mxCell>
        <mxCell id="CbvtvLUTBNrBXuvtt3i8-111" value="q" style="rounded=0;whiteSpace=wrap;html=1;" vertex="1" parent="1">
          <mxGeometry x="-28" y="1188" width="120" height="25" as="geometry" />
        </mxCell>
        <mxCell id="CbvtvLUTBNrBXuvtt3i8-112" value="k" style="rounded=0;whiteSpace=wrap;html=1;" vertex="1" parent="1">
          <mxGeometry x="-28" y="1223" width="120" height="25" as="geometry" />
        </mxCell>
        <mxCell id="CbvtvLUTBNrBXuvtt3i8-113" value="v" style="rounded=0;whiteSpace=wrap;html=1;" vertex="1" parent="1">
          <mxGeometry x="-28" y="1261" width="120" height="25" as="geometry" />
        </mxCell>
        <mxCell id="CbvtvLUTBNrBXuvtt3i8-114" value="q" style="rounded=0;whiteSpace=wrap;html=1;" vertex="1" parent="1">
          <mxGeometry x="-32" y="1331" width="120" height="25" as="geometry" />
        </mxCell>
        <mxCell id="CbvtvLUTBNrBXuvtt3i8-119" style="edgeStyle=orthogonalEdgeStyle;rounded=0;orthogonalLoop=1;jettySize=auto;html=1;entryX=0;entryY=0.5;entryDx=0;entryDy=0;" edge="1" parent="1" source="CbvtvLUTBNrBXuvtt3i8-115" target="CbvtvLUTBNrBXuvtt3i8-117">
          <mxGeometry relative="1" as="geometry">
            <Array as="points">
              <mxPoint x="153" y="1379" />
              <mxPoint x="153" y="1290" />
            </Array>
          </mxGeometry>
        </mxCell>
        <mxCell id="CbvtvLUTBNrBXuvtt3i8-115" value="k" style="rounded=0;whiteSpace=wrap;html=1;" vertex="1" parent="1">
          <mxGeometry x="-32" y="1366" width="120" height="25" as="geometry" />
        </mxCell>
        <mxCell id="CbvtvLUTBNrBXuvtt3i8-120" style="edgeStyle=orthogonalEdgeStyle;rounded=0;orthogonalLoop=1;jettySize=auto;html=1;entryX=0;entryY=0.5;entryDx=0;entryDy=0;" edge="1" parent="1" source="CbvtvLUTBNrBXuvtt3i8-116" target="CbvtvLUTBNrBXuvtt3i8-117">
          <mxGeometry relative="1" as="geometry">
            <mxPoint x="154" y="1378" as="targetPoint" />
            <Array as="points">
              <mxPoint x="153" y="1417" />
              <mxPoint x="153" y="1290" />
            </Array>
          </mxGeometry>
        </mxCell>
        <mxCell id="CbvtvLUTBNrBXuvtt3i8-116" value="v" style="rounded=0;whiteSpace=wrap;html=1;" vertex="1" parent="1">
          <mxGeometry x="-32" y="1404" width="120" height="25" as="geometry" />
        </mxCell>
        <mxCell id="CbvtvLUTBNrBXuvtt3i8-130" style="edgeStyle=orthogonalEdgeStyle;rounded=0;orthogonalLoop=1;jettySize=auto;html=1;entryX=0;entryY=0.5;entryDx=0;entryDy=0;" edge="1" parent="1" source="CbvtvLUTBNrBXuvtt3i8-117" target="CbvtvLUTBNrBXuvtt3i8-121">
          <mxGeometry relative="1" as="geometry" />
        </mxCell>
        <mxCell id="CbvtvLUTBNrBXuvtt3i8-117" value="cross_agent_attn" style="rounded=0;whiteSpace=wrap;html=1;fontSize=14;" vertex="1" parent="1">
          <mxGeometry x="213" y="1248" width="127" height="84" as="geometry" />
        </mxCell>
        <mxCell id="CbvtvLUTBNrBXuvtt3i8-140" style="edgeStyle=orthogonalEdgeStyle;rounded=0;orthogonalLoop=1;jettySize=auto;html=1;entryX=0;entryY=0.75;entryDx=0;entryDy=0;" edge="1" parent="1" source="CbvtvLUTBNrBXuvtt3i8-121" target="CbvtvLUTBNrBXuvtt3i8-131">
          <mxGeometry relative="1" as="geometry">
            <Array as="points">
              <mxPoint x="1079" y="1290" />
            </Array>
          </mxGeometry>
        </mxCell>
        <mxCell id="CbvtvLUTBNrBXuvtt3i8-121" value="fuse_feature" style="rounded=0;whiteSpace=wrap;html=1;fontSize=14;" vertex="1" parent="1">
          <mxGeometry x="424" y="1260" width="120" height="60" as="geometry" />
        </mxCell>
        <mxCell id="CbvtvLUTBNrBXuvtt3i8-122" value="vi_fuse_differ" style="rounded=0;whiteSpace=wrap;html=1;fontSize=14;" vertex="1" parent="1">
          <mxGeometry x="617" y="1176" width="120" height="60" as="geometry" />
        </mxCell>
        <mxCell id="CbvtvLUTBNrBXuvtt3i8-125" value="ir_fuse_differ" style="rounded=0;whiteSpace=wrap;html=1;fontSize=14;" vertex="1" parent="1">
          <mxGeometry x="617" y="1335" width="120" height="60" as="geometry" />
        </mxCell>
        <mxCell id="CbvtvLUTBNrBXuvtt3i8-136" style="edgeStyle=orthogonalEdgeStyle;rounded=0;orthogonalLoop=1;jettySize=auto;html=1;" edge="1" parent="1" source="CbvtvLUTBNrBXuvtt3i8-127" target="CbvtvLUTBNrBXuvtt3i8-131">
          <mxGeometry relative="1" as="geometry" />
        </mxCell>
        <mxCell id="CbvtvLUTBNrBXuvtt3i8-127" value="agent_attn" style="rounded=0;whiteSpace=wrap;html=1;fontSize=14;" vertex="1" parent="1">
          <mxGeometry x="803" y="1176" width="120" height="60" as="geometry" />
        </mxCell>
        <mxCell id="CbvtvLUTBNrBXuvtt3i8-137" style="edgeStyle=orthogonalEdgeStyle;rounded=0;orthogonalLoop=1;jettySize=auto;html=1;" edge="1" parent="1" source="CbvtvLUTBNrBXuvtt3i8-128">
          <mxGeometry relative="1" as="geometry">
            <mxPoint x="1140" y="1313.1176470588234" as="targetPoint" />
          </mxGeometry>
        </mxCell>
        <mxCell id="CbvtvLUTBNrBXuvtt3i8-128" value="agent_attn" style="rounded=0;whiteSpace=wrap;html=1;fontSize=14;" vertex="1" parent="1">
          <mxGeometry x="805" y="1335" width="120" height="60" as="geometry" />
        </mxCell>
        <mxCell id="CbvtvLUTBNrBXuvtt3i8-131" value="fuse_feature" style="rounded=0;whiteSpace=wrap;html=1;fontSize=14;" vertex="1" parent="1">
          <mxGeometry x="1079" y="1248" width="120" height="60" as="geometry" />
        </mxCell>
        <mxCell id="CbvtvLUTBNrBXuvtt3i8-138" value="+" style="text;html=1;align=center;verticalAlign=middle;whiteSpace=wrap;rounded=0;" vertex="1" parent="1">
          <mxGeometry x="977" y="1176" width="60" height="30" as="geometry" />
        </mxCell>
        <mxCell id="CbvtvLUTBNrBXuvtt3i8-139" value="+" style="text;html=1;align=center;verticalAlign=middle;whiteSpace=wrap;rounded=0;" vertex="1" parent="1">
          <mxGeometry x="985.26" y="1328.5" width="60" height="30" as="geometry" />
        </mxCell>
      </root>
    </mxGraphModel>
  </diagram>
</mxfile>
